inDegrees=yes
name=ik_S42_A05_T02
DataType=double
version=3
OpenSimVersion=4.3-2021-08-27-4bc7ad9
endheader
time	pelvis_tilt	pelvis_list	pelvis_rotation	pelvis_tx	pelvis_ty	pelvis_tz	hip_flexion_r	hip_adduction_r	hip_rotation_r	knee_angle_r	knee_angle_r_beta	ankle_angle_r	subtalar_angle_r	mtp_angle_r	hip_flexion_l	hip_adduction_l	hip_rotation_l	knee_angle_l	knee_angle_l_beta	ankle_angle_l	subtalar_angle_l	mtp_angle_l	lumbar_extension	lumbar_bending	lumbar_rotation	arm_flex_r	arm_add_r	arm_rot_r	elbow_flex_r	pro_sup_r	wrist_flex_r	wrist_dev_r	arm_flex_l	arm_add_l	arm_rot_l	elbow_flex_l	pro_sup_l	wrist_flex_l	wrist_dev_l
0	0	0	0	0	0.9399999999999999	0	0	0	0	0	0	0	0	0	0	0	0	0	0	0	0	0	0	0	0	0	0	0	0	89.99999999963507	0	0	0	0	0	0	89.99999999869995	0	0
0.02	-7.043512752492111	-2.151997973115177	22.71536630954318	0	0.9399999999999999	0	3.847507928011168	-1.787873689318031	-1.29361406213866	5.896135217711255	0.1029069726918541	0	0	0	3.847507928011168	-1.787873689318031	-1.29361406213866	5.896135217711255	0.1029069726918541	0	0	0	-5.153994747035484	-2.106837968977605	3.804951517578508	35.95156891340153	-0.569124260891799	1.945841042776722	42.04224199915132	130.2727347336566	0	0	32.68864868156282	-1.426010466756318	11.1623459793813	43.13572216373998	119.2619476351926	0	0
0.04	-7.101293929369927	-2.432785009677816	24.7404947103682	0	0.9399999999999999	0	43.76101637234351	-11.07685709202864	-10.72207619192462	54.6073188465065	0.9530775095578905	0	0	0	43.76101637234351	-11.07685709202864	-10.72207619192462	54.6073188465065	0.9530775095578905	0	0	0	-5.067250009140764	-1.692294318817885	1.808222838095433	35.96486044640465	-0.5722154791996445	1.937701642709833	42.05952351691419	130.2570951903523	0	0	32.71638685122239	-1.42135881153386	11.18130234573242	43.10900683925789	119.2226491748189	0	0
0.06	-7.098588018146586	-2.415790465794651	24.72983271198548	0	0.9399999999999999	0	43.76014226833127	-11.07724437460281	-10.72267901818207	54.60710665231207	0.953073806070544	0	0	0	43.76014226833127	-11.07724437460281	-10.72267901818207	54.60710665231207	0.953073806070544	0	0	0	-5.056199141408473	-1.679828041366073	1.813601854989128	36.00965322749062	-0.5534438975163958	1.87704778299611	41.98931423666144	130.3095660766265	0	0	32.70653714005625	-1.401243892527297	11.16746023241572	43.08362535163712	119.2351318578521	0	0
0.08	-7.093532369955275	-2.407237890747322	24.71937409479915	0	0.9399999999999999	0	43.76179864804949	-11.07102167962182	-10.72023530120915	54.60744333760022	0.9530796823373653	0	0	0	43.76179864804949	-11.07102167962182	-10.72023530120915	54.60744333760022	0.9530796823373653	0	0	0	-5.050283175911072	-1.671753623984878	1.81009585969649	36.01038775582489	-0.5560423187517115	1.860414066043329	42.00782395820207	130.275669492835	0	0	32.69651248184022	-1.401752987283845	11.16248975809579	43.11436579018029	119.2042139750562	0	0
0.1	-7.089528374323574	-2.401200128028388	24.71553944859046	0	0.9399999999999999	0	43.76262869459485	-11.06699754766882	-10.71879522877895	54.60760118637887	0.9530824373182729	0	0	0	43.76262869459485	-11.06699754766882	-10.71879522877895	54.60760118637887	0.9530824373182729	0	0	0	-5.045138314766641	-1.666959575243274	1.809935592109591	36.00638601186273	-0.5564025871538573	1.852310181604634	41.99858877412326	130.2735106328557	0	0	32.69069613674715	-1.411644138748127	11.17319170806673	43.11802242871078	119.1972440643495	0	0
0.12	-7.084531825048921	-2.398913149527258	24.70938255373818	0	0.9399999999999999	0	43.76226295046725	-11.06657347345064	-10.71891213186999	54.60750608264424	0.9530807774449728	0	0	0	43.76226295046725	-11.06657347345064	-10.71891213186999	54.60750608264424	0.9530807774449728	0	0	0	-5.038926238377414	-1.667889467663518	1.812960626013165	36.00481719566294	-0.524993382552853	1.826844865633674	41.97013177935002	130.2947258720997	0	0	32.69561760102589	-1.388302194366188	11.17855132936665	43.09272128670965	119.2131331675309	0	0
0.14	-7.084522357226126	-2.397305213309336	24.70880017994797	0	0.9399999999999999	0	43.76388101930601	-11.06106562599476	-10.7166607415085	54.60784240759234	0.9530866474226737	0	0	0	43.76388101930601	-11.06106562599476	-10.7166607415085	54.60784240759234	0.9530866474226737	0	0	0	-5.040305663004649	-1.66452831180198	1.814410481524192	36.01149057234946	-0.5541695647793854	1.830591228659328	41.99914662406606	130.2653184694342	0	0	32.69891303467453	-1.415901437819318	11.2042958596461	43.11711516331966	119.1863796672017	0	0
0.16	-7.083444893340547	-2.396709377197051	24.71665204655232	0	0.9399999999999999	0	43.76346877365543	-11.06240339425205	-10.71722852202771	54.60775836036271	0.9530851805217894	0	0	0	43.76346877365543	-11.06240339425205	-10.71722852202771	54.60775836036271	0.9530851805217894	0	0	0	-5.038492362040462	-1.665074015319408	1.815624294486831	36.0216525063445	-0.5286195079581801	1.802633275482296	41.94661927355668	130.3127326403514	0	0	32.71189123211369	-1.391696811428394	11.2134615457678	43.06809517140925	119.198866815452	0	0
0.18	-7.082469816459425	-2.395617560248517	24.72292035557878	0	0.9399999999999999	0	43.76539618404251	-11.05659890452753	-10.71472748858728	54.60816785961453	0.9530923276320182	0	0	0	43.76539618404251	-11.05659890452753	-10.71472748858728	54.60816785961453	0.9530923276320182	0	0	0	-5.040020178807737	-1.661235618266751	1.808957456145233	36.02576092644158	-0.5340555686968792	1.850296992739982	41.97651473335133	130.2566681241728	0	0	32.71490155132356	-1.403312051141257	11.22939606169687	43.09283138807864	119.1664608193514	0	0
0.2	-7.082406512556129	-2.393253233913029	24.72729433582384	0	0.9399999999999999	0	43.76818774059274	-11.04802104188689	-10.71105877490472	54.60875776786732	0.953102623473314	0	0	0	43.76818774059274	-11.04802104188689	-10.71105877490472	54.60875776786732	0.953102623473314	0	0	0	-5.042874116334868	-1.655003043572399	1.804455261582274	36.02536558759405	-0.5298339413059682	1.891270265945238	42.01922897787015	130.173307001498	0	0	32.7249260434545	-1.413245842008393	11.22778881519415	43.13176106038755	119.1254113449699	0	0
0.22	-7.081535005829377	-2.394508303163646	24.74125725867263	0	0.9399999999999999	0	43.76943589303504	-11.0435754412373	-10.70927670507594	54.60901470204301	0.9531071078206406	0	0	0	43.76943589303504	-11.0435754412373	-10.70927670507594	54.60901470204301	0.9531071078206406	0	0	0	-5.044290921115106	-1.654732053149448	1.802343421353101	36.04892009071641	-0.5666154525712493	1.939123339878229	42.00841875396233	130.1324618256139	0	0	32.7217535476222	-1.422737344348605	11.22462585459538	43.10628935741179	119.1348500190682	0	0
0.24	-7.085200262414578	-2.380336132937342	24.82348938962731	0	0.9399999999999999	0	43.76988210352016	-11.04225716631908	-10.70870165123587	54.6091098988794	0.9531087693188731	0	0	0	43.76988210352016	-11.04225716631908	-10.70870165123587	54.6091098988794	0.9531087693188731	0	0	0	-5.045290853838982	-1.63163011789948	1.723978863253966	36.29313363390317	-0.9993756371703298	2.690651421466177	42.06065965121017	129.1479694670893	0	0	32.72608539094584	-1.389241251500745	11.15840282360227	43.05957701390806	119.1862071344898	0	0
0.26	-7.029444103549193	-2.352919083635144	24.97086066694191	0	0.9399999999999999	0	43.77043584373717	-11.04074578183432	-10.70802416445085	54.60923666675258	0.9531109818356459	0	0	0	43.77043584373717	-11.04074578183432	-10.70802416445085	54.60923666675258	0.9531109818356459	0	0	0	-4.9870789561843	-1.611032664014192	1.548721643351566	36.04368869747977	-1.328406666886852	3.150754150600826	42.97967814316369	127.3539413029334	0	0	32.60174188048748	-1.399109697630985	11.1258647605733	43.05155440469729	119.2059837282153	0	0
0.28	-6.987783824931719	-2.323615348831604	24.98998016846515	0	0.9399999999999999	0	43.77073807477127	-11.03986429598687	-10.70763787262653	54.60930184855338	0.9531121194726823	0	0	0	43.77073807477127	-11.03986429598687	-10.70763787262653	54.60930184855338	0.9531121194726823	0	0	0	-4.939421253918058	-1.596133634149732	1.495745549867845	35.45869640990886	-1.367099353563292	3.316447639216973	43.43022182969229	127.3795686254308	0	0	32.50865868249119	-1.401074387359097	11.00346507513009	43.00383321215065	119.2361982204923	0	0
0.3	-6.96662950701463	-2.323184171329014	24.72557089330784	0	0.9399999999999999	0	43.77133171744987	-11.03812680065273	-10.70687720805247	54.60942933758128	0.9531143445759793	0	0	0	43.77133171744987	-11.03812680065273	-10.70687720805247	54.60942933758128	0.9531143445759793	0	0	0	-4.913303970177578	-1.624679205302222	1.703850718671032	34.58882719695095	-1.600214650127307	3.016029976156609	46.13842102499568	124.9054350152551	0	0	32.49207698357744	-1.419902918728479	10.85778690128778	42.97484656869095	119.2850583370285	0	0
0.32	-6.953238446788837	-2.292077769344854	24.39205678671482	0	0.9399999999999999	0	43.77217539376096	-11.03563576101595	-10.7057896173397	54.60960882646085	0.9531174772478985	0	0	0	43.77217539376096	-11.03563576101595	-10.7057896173397	54.60960882646085	0.9531174772478985	0	0	0	-4.879612668382144	-1.624613525493069	1.955867361107129	33.77470438151376	-2.489257386225291	2.148084153739799	49.29265274808344	122.3875580088618	0	0	32.40431796525616	-1.380343908678554	10.5657370905085	42.93965673793862	119.4065967396008	0	0
